<svg width="20" height="34" viewBox="0 0 20 34" fill="none" xmlns="http://www.w3.org/2000/svg">
<g clip-path="url(#clip0_36_2427)">
<path fill-rule="evenodd" clip-rule="evenodd" d="M9.9873 25.661L19.9998 19.2537L9.9873 34V25.661ZM11.4767 26.4961V29.1611L14.6869 24.4433L11.4767 26.4961Z" fill="#5A9DED"/>
<path fill-rule="evenodd" clip-rule="evenodd" d="M11.0076 12.3555L18.4043 16.6207L17.6721 17.934L10.2754 13.6689L11.0076 12.3555Z" fill="#D895D3"/>
<path fill-rule="evenodd" clip-rule="evenodd" d="M9.9873 0L19.9748 17.5068L9.9873 23.9269V0ZM11.4579 5.60398V21.2046L17.9785 17.0159L11.4579 5.60398Z" fill="#FF9C92"/>
<path fill-rule="evenodd" clip-rule="evenodd" d="M10.0188 25.661L0 19.2537L10.0188 34V25.661ZM8.52941 26.4961V29.1611L5.31915 24.4433L8.52941 26.4961Z" fill="#53D3E0"/>
<path fill-rule="evenodd" clip-rule="evenodd" d="M8.67946 12.4958L1.28271 16.7609L2.01488 18.0743L9.41162 13.8091L8.67946 12.4958Z" fill="#A6E275"/>
<path fill-rule="evenodd" clip-rule="evenodd" d="M9.98748 0L0 17.5068L9.98748 23.9205V0ZM8.51064 5.60397V21.2046L1.98999 17.0159L8.51064 5.60397Z" fill="#FFE94D"/>
</g>
<defs>
<clipPath id="clip0_36_2427">
<rect width="20" height="34" fill="white"/>
</clipPath>
</defs>
</svg> 