<svg xmlns="http://www.w3.org/2000/svg" version="1.1" xmlns:xlink="http://www.w3.org/1999/xlink" width="512" height="512" x="0" y="0" viewBox="0 0 64 64" style="enable-background:new 0 0 512 512" xml:space="preserve" class=""><g><circle cx="32" cy="32" r="27" fill="#363f4c" opacity="1" data-original="#363f4c" class=""></circle><path fill="#1f2633" d="M32 5v54a27 27 0 0 0 0-54z" opacity="1" data-original="#1f2633"></path><circle cx="32" cy="32" r="23" fill="#535a66" opacity="1" data-original="#535a66" class=""></circle><path fill="#363f4c" d="M32 9v46a23 23 0 0 0 0-46z" opacity="1" data-original="#363f4c" class=""></path><path fill="#ebebf2" d="M45.92 18.62A1 1 0 0 0 45 18h-5a1 1 0 0 0-.71.29l-6.58 6.59a1 1 0 0 1-1.42 0l-6.58-6.59A1 1 0 0 0 24 18h-5a1 1 0 0 0-.92.62 1 1 0 0 0 .21 1.09l10.17 10.17a5 5 0 0 0 7.08 0l10.17-10.17a1 1 0 0 0 .21-1.09z" opacity="1" data-original="#ebebf2" class=""></path><path fill="#d1d0ea" d="M45.92 18.62A1 1 0 0 0 45 18h-5a1 1 0 0 0-.71.29l-6.58 6.59a1 1 0 0 1-.71.29v6.17a5 5 0 0 0 3.54-1.46l10.17-10.17a1 1 0 0 0 .21-1.09z" opacity="1" data-original="#d1d0ea"></path><path fill="#ebebf2" d="M45.71 44.29 35.54 34.12a5 5 0 0 0-7.08 0L18.29 44.29a1 1 0 0 0-.21 1.09A1 1 0 0 0 19 46h5a1 1 0 0 0 .71-.29l6.58-6.59a1 1 0 0 1 1.42 0l6.58 6.59A1 1 0 0 0 40 46h5a1 1 0 0 0 .92-.62 1 1 0 0 0-.21-1.09z" opacity="1" data-original="#ebebf2" class=""></path><path fill="#d1d0ea" d="M45.71 44.29 35.54 34.12A5 5 0 0 0 32 32.66v6.17a1 1 0 0 1 .71.29l6.58 6.59A1 1 0 0 0 40 46h5a1 1 0 0 0 .92-.62 1 1 0 0 0-.21-1.09z" opacity="1" data-original="#d1d0ea"></path></g></svg>