<svg width="42" height="42" viewBox="0 0 42 42" fill="none" xmlns="http://www.w3.org/2000/svg">
<path d="M22.799 3.50166C24.0761 3.49676 25.3531 3.5096 26.6298 3.54017L26.9693 3.55241C27.3613 3.56641 27.748 3.58391 28.2153 3.60491C30.0773 3.69241 31.3478 3.98642 32.4625 4.41867C33.6175 4.86317 34.5905 5.46516 35.5635 6.43816C36.4532 7.31248 37.1417 8.37007 37.5813 9.53741C38.0135 10.6522 38.3075 11.9244 38.395 13.7864C38.416 14.2519 38.4335 14.6404 38.4475 15.0324L38.458 15.3719C38.4891 16.648 38.5025 17.9245 38.4983 19.2009L38.5 20.5064V22.7989C38.5043 24.076 38.4909 25.353 38.4598 26.6297L38.4493 26.9692C38.4353 27.3612 38.4178 27.7479 38.3968 28.2152C38.3093 30.0772 38.0118 31.3477 37.5813 32.4624C37.1432 33.631 36.4545 34.6895 35.5635 35.5634C34.6885 36.453 33.6303 37.1415 32.4625 37.5812C31.3478 38.0134 30.0773 38.3074 28.2153 38.3949C27.748 38.4159 27.3613 38.4334 26.9693 38.4474L26.6298 38.4579C25.3531 38.489 24.0761 38.5024 22.799 38.4982L21.4935 38.4999H19.2028C17.9257 38.5042 16.6487 38.4908 15.372 38.4597L15.0325 38.4492C14.6171 38.4341 14.2018 38.4166 13.7865 38.3967C11.9245 38.3092 10.654 38.0117 9.53753 37.5812C8.36973 37.1425 7.31195 36.4539 6.43828 35.5634C5.54761 34.6889 4.85843 33.6306 4.41878 32.4624C3.98653 31.3477 3.69253 30.0772 3.60503 28.2152C3.58554 27.7999 3.56804 27.3846 3.55253 26.9692L3.54378 26.6297C3.51152 25.353 3.49693 24.076 3.50003 22.7989V19.2009C3.49515 17.9245 3.50798 16.648 3.53853 15.3719L3.55078 15.0324C3.56478 14.6404 3.58228 14.2519 3.60328 13.7864C3.69078 11.9227 3.98478 10.6539 4.41703 9.53741C4.85694 8.3695 5.54747 7.31219 6.44003 6.43991C7.3131 5.54873 8.37022 4.85892 9.53753 4.41867C10.654 3.98642 11.9228 3.69241 13.7865 3.60491L15.0325 3.55241L15.372 3.54367C16.6481 3.51142 17.9246 3.49683 19.201 3.49992L22.799 3.50166ZM21 12.2517C19.8407 12.2353 18.6896 12.4495 17.6137 12.8818C16.5379 13.3141 15.5587 13.956 14.733 14.77C13.9074 15.5841 13.2517 16.5541 12.8042 17.6237C12.3567 18.6934 12.1263 19.8413 12.1263 21.0008C12.1263 22.1603 12.3567 23.3082 12.8042 24.3778C13.2517 25.4475 13.9074 26.4175 14.733 27.2316C15.5587 28.0456 16.5379 28.6875 17.6137 29.1198C18.6896 29.5521 19.8407 29.7663 21 29.7499C23.3207 29.7499 25.5463 28.828 27.1872 27.1871C28.8282 25.5462 29.75 23.3206 29.75 20.9999C29.75 18.6793 28.8282 16.4537 27.1872 14.8127C25.5463 13.1718 23.3207 12.2517 21 12.2517ZM21 15.7517C21.6974 15.7388 22.3904 15.8651 23.0384 16.123C23.6865 16.381 24.2766 16.7655 24.7744 17.2541C25.2722 17.7427 25.6676 18.3256 25.9376 18.9688C26.2075 19.6119 26.3466 20.3024 26.3468 20.9999C26.3469 21.6974 26.208 22.3879 25.9382 23.0312C25.6685 23.6744 25.2733 24.2574 24.7756 24.7462C24.278 25.235 23.688 25.6197 23.0401 25.8779C22.3921 26.1361 21.6992 26.2625 21.0018 26.2499C19.6094 26.2499 18.274 25.6968 17.2895 24.7122C16.3049 23.7277 15.7518 22.3923 15.7518 20.9999C15.7518 19.6075 16.3049 18.2722 17.2895 17.2876C18.274 16.303 19.6094 15.7499 21.0018 15.7499L21 15.7517ZM30.1875 9.62666C29.623 9.64926 29.089 9.88943 28.6976 10.2969C28.3061 10.7043 28.0875 11.2474 28.0875 11.8124C28.0875 12.3774 28.3061 12.9205 28.6976 13.328C29.089 13.7354 29.623 13.9756 30.1875 13.9982C30.7677 13.9982 31.3241 13.7677 31.7343 13.3575C32.1446 12.9472 32.375 12.3908 32.375 11.8107C32.375 11.2305 32.1446 10.6741 31.7343 10.2639C31.3241 9.85363 30.7677 9.62317 30.1875 9.62317V9.62666Z" fill="#8580A5"/>
</svg> 